<?xml version="1.0" encoding="iso-8859-1"?>
<!-- Generator: Adobe Illustrator 21.0.0, SVG Export Plug-In . SVG Version: 6.00 Build 0)  -->
<svg xmlns="http://www.w3.org/2000/svg" xmlns:xlink="http://www.w3.org/1999/xlink" version="1.1" id="Capa_1" x="0px" y="0px" viewBox="0 0 512 512" style="enable-background:new 0 0 512 512;" xml:space="preserve" width="512" height="512">
<g>
	<rect x="44.657" y="40.05" style="fill:#EDF5FF;" width="422.687" height="471.95"/>
	<g>
		<rect x="256" y="40.05" style="fill:#D7E9FF;" width="210.948" height="471.95"/>
	</g>
	<rect x="117.349" y="238.417" style="fill:#D7E9FF;" width="93.188" height="30"/>
	<rect x="117.349" y="298.42" style="fill:#D7E9FF;" width="93.188" height="30"/>
	<rect x="117.349" y="358.424" style="fill:#D7E9FF;" width="93.188" height="30"/>
	<rect x="117.349" y="418.428" style="fill:#D7E9FF;" width="277.302" height="30"/>
	<rect x="301.462" y="238.417" style="fill:#D7E9FF;" width="93.188" height="30"/>
	<rect x="301.462" y="298.42" style="fill:#D7E9FF;" width="93.188" height="30"/>
	<rect x="301.462" y="358.424" style="fill:#D7E9FF;" width="93.188" height="30"/>
	<rect x="301.462" y="238.417" style="fill:#B6D8FD;" width="93.188" height="30"/>
	<rect x="301.462" y="298.42" style="fill:#B6D8FD;" width="93.188" height="30"/>
	<rect x="301.462" y="358.424" style="fill:#B6D8FD;" width="93.188" height="30"/>
	<g>
		<rect x="256" y="418.428" style="fill:#B6D8FD;" width="138.651" height="30"/>
	</g>
	<polygon style="fill:#FC5755;" points="316.462,402.635 256,365.397 195.538,402.635 195.538,212.293 316.462,210.215  "/>
	<g>
		<polygon style="fill:#FC0E3C;" points="256,211.254 256,365.397 316.462,402.635 316.462,210.215   "/>
	</g>
	<path style="fill:#6598EA;" d="M256,234.021c-64.52,0-117.01-52.491-117.01-117.01S191.481,0,256,0s117.01,52.491,117.01,117.01   S320.52,234.021,256,234.021z"/>
	<g>
		<path style="fill:#326ED3;" d="M256,0v234.021c64.52,0,117.01-52.491,117.01-117.01S320.52,0,256,0z"/>
	</g>
	<polygon style="fill:#F3C86A;" points="287.52,165.514 256,152.321 224.481,165.514 227.288,131.46 205.001,105.56 238.255,97.707    256,68.507 273.745,97.707 306.999,105.56 284.712,131.46  "/>
	<g>
		<polygon style="fill:#FDAB29;" points="306.999,105.56 273.745,97.707 256,68.507 256,152.321 287.52,165.514 284.712,131.46       "/>
	</g>
</g>















</svg>
